<?xml version="1.0" standalone="no"?>
<!DOCTYPE svg PUBLIC "-//W3C//DTD SVG 20010904//EN"
 "http://www.w3.org/TR/2001/REC-SVG-20010904/DTD/svg10.dtd">
<svg version="1.0" xmlns="http://www.w3.org/2000/svg"
 width="360.000000pt" height="360.000000pt" viewBox="0 0 360.000000 360.000000"
 preserveAspectRatio="xMidYMid meet">

<g transform="translate(0.000000,360.000000) scale(0.100000,-0.100000)"
fill="#000000" stroke="none">
<path d="M1803 2251 c-7 -11 -42 -56 -78 -100 l-66 -81 125 0 125 0 3 -155 3
-155 88 95 87 95 0 160 0 160 -138 0 c-124 0 -138 -2 -149 -19z m244 -151 l3
-125 -45 -48 -45 -49 0 121 0 121 -101 0 -100 0 38 49 c42 54 57 59 188 57
l60 -1 2 -125z"/>
<path d="M1932 1733 l-150 -157 -77 71 -78 70 -41 -46 c-71 -79 -76 -85 -75
-90 1 -3 62 -62 136 -130 l136 -125 35 40 c20 21 89 95 154 163 l118 124 0
118 c0 66 -2 119 -4 119 -2 0 -72 -71 -154 -157z m116 -4 l0 -51 -131 -139
c-72 -76 -134 -139 -137 -139 -6 0 -63 50 -167 147 l-42 39 31 33 31 33 66
-66 c37 -36 72 -66 78 -66 7 0 69 59 139 130 70 72 128 130 130 130 2 0 3 -23
2 -51z"/>
</g>
</svg>
